<?xml version="1.0" encoding="UTF-8" standalone="no" ?>
<!DOCTYPE svg PUBLIC "-//W3C//DTD SVG 1.1//EN" "http://www.w3.org/Graphics/SVG/1.1/DTD/svg11.dtd">
<svg xmlns="http://www.w3.org/2000/svg" xmlns:xlink="http://www.w3.org/1999/xlink" version="1.1" width="545" height="230.65448" xml:space="preserve">
<desc>Created with Fabric.js 1.6.0-rc.1</desc>
<defs></defs>
<g style="stroke: none; stroke-width: 1; stroke-dasharray: none; stroke-linecap: butt; stroke-linejoin: miter; stroke-miterlimit: 10; fill: none; fill-rule: nonzero; opacity: 1;" transform="translate(10 10) scale(4.2 1.63)" >
  <path d="M 6 124 h 112 c 3.3 0 6 -2.7 6 -6 V 6 c 0 -3.3 -2.7 -6 -6 -6 H 6 C 2.7 0 0 2.7 0 6 v 112 C 0 121.3 2.7 124 6 124 z" style="stroke: none; stroke-width: 1; stroke-dasharray: none; stroke-linecap: butt; stroke-linejoin: miter; stroke-miterlimit: 10; fill: #000000; fill-rule: nonzero; opacity: 1;" transform="" stroke-linecap="round" />
</g>
<g style="stroke: none; stroke-width: 1; stroke-dasharray: none; stroke-linecap: butt; stroke-linejoin: miter; stroke-miterlimit: 10; fill: none; fill-rule: nonzero; opacity: 1;" transform="translate(200.39999999999998 23.44999999999999) scale(0.31 0.25)" >
  <path d="M 127.876 491.753 c 0 -70.8 57.2 -128 128 -128 s 128 57.2 128 128" style="stroke: none; stroke-width: 1; stroke-dasharray: none; stroke-linecap: butt; stroke-linejoin: miter; stroke-miterlimit: 10; fill: #07692e; fill-rule: nonzero; opacity: 1;" transform=" matrix(1 0 0 1 0 0) " stroke-linecap="round" />
  <rect x="75.88" y="487.75" rx="0" ry="0" width="360" height="8" style="stroke: none; stroke-width: 1; stroke-dasharray: none; stroke-linecap: butt; stroke-linejoin: miter; stroke-miterlimit: 10; fill: #38383B; fill-rule: nonzero; opacity: 1;" transform=" matrix(1 0 0 1 0 0) "/>
  <path d="M 435.876 511.753 h -8 v -8 h 8 V 511.753 z M 419.876 511.753 h -8 v -8 h 8 V 511.753 z M 403.876 511.753 h -8 v -8 h 8 V 511.753 z M 387.876 511.753 h -8 v -8 h 8 V 511.753 z M 371.876 511.753 h -8 v -8 h 8 V 511.753 z M 355.876 511.753 h -8 v -8 h 8 V 511.753 z M 339.876 511.753 h -8 v -8 h 8 V 511.753 z M 323.876 511.753 h -8 v -8 h 8 V 511.753 z M 307.876 511.753 h -8 v -8 h 8 V 511.753 z M 291.876 511.753 h -8 v -8 h 8 V 511.753 z M 275.876 511.753 h -8 v -8 h 8 V 511.753 z M 259.876 511.753 h -8 v -8 h 8 V 511.753 z M 243.876 511.753 h -8 v -8 h 8 V 511.753 z M 227.876 511.753 h -8 v -8 h 8 V 511.753 z M 211.876 511.753 h -8 v -8 h 8 V 511.753 z M 195.876 511.753 h -8 v -8 h 8 V 511.753 z M 179.876 511.753 h -8 v -8 h 8 V 511.753 z M 163.876 511.753 h -8 v -8 h 8 V 511.753 z M 147.876 511.753 h -8 v -8 h 8 V 511.753 z M 131.876 511.753 h -8 v -8 h 8 V 511.753 z M 115.876 511.753 h -8 v -8 h 8 V 511.753 z M 99.876 511.753 h -8 v -8 h 8 V 511.753 z M 83.876 511.753 h -8 v -8 h 8 V 511.753 z" style="stroke: none; stroke-width: 1; stroke-dasharray: none; stroke-linecap: butt; stroke-linejoin: miter; stroke-miterlimit: 10; fill: #38383B; fill-rule: nonzero; opacity: 1;" transform=" matrix(1 0 0 1 0 0) " stroke-linecap="round" />
  <path d="M 203.876 179.753 c -5.2 0 -10 -3.2 -11.6 -8.4 c -2 -6.4 1.6 -13.2 8 -14.8 l 104 -32 c 6.4 -2 13.2 1.6 14.8 8 c 2 6.4 -1.6 13.2 -8 14.8 l -104 32 C 206.276 179.753 205.076 179.753 203.876 179.753 z" style="stroke: none; stroke-width: 1; stroke-dasharray: none; stroke-linecap: butt; stroke-linejoin: miter; stroke-miterlimit: 10; fill: #07692e; fill-rule: nonzero; opacity: 1;" transform=" matrix(1 0 0 1 0 0) " stroke-linecap="round" />
  <path d="M 203.876 143.753 c -5.2 0 -10 -3.2 -11.6 -8.4 c -2 -6.4 1.6 -13.2 8 -14.8 l 104 -32 c 6.4 -2 13.2 1.6 14.8 8 c 2 6.4 -1.6 13.2 -8 14.8 l -104 32 C 206.276 143.753 205.076 143.753 203.876 143.753 z" style="stroke: none; stroke-width: 1; stroke-dasharray: none; stroke-linecap: butt; stroke-linejoin: miter; stroke-miterlimit: 10; fill: #07692e; fill-rule: nonzero; opacity: 1;" transform=" matrix(1 0 0 1 0 0) " stroke-linecap="round" />
  <path d="M 203.876 107.753 c -5.2 0 -10 -3.2 -11.6 -8.4 c -2 -6.4 1.6 -13.2 8 -14.8 l 104 -32 c 6.4 -2 13.2 1.6 14.8 8 c 2 6.4 -1.6 13.2 -8 14.8 l -104 32 C 206.276 107.753 205.076 107.753 203.876 107.753 z" style="stroke: none; stroke-width: 1; stroke-dasharray: none; stroke-linecap: butt; stroke-linejoin: miter; stroke-miterlimit: 10; fill: #07692e; fill-rule: nonzero; opacity: 1;" transform=" matrix(1 0 0 1 0 0) " stroke-linecap="round" />
  <path d="M 203.876 71.753 c -5.2 0 -10 -3.2 -11.6 -8.4 c -2 -6.4 1.6 -13.2 8 -14.8 l 104 -32 c 6.4 -2 13.2 1.6 14.8 8 c 2 6.4 -1.6 13.2 -8 14.8 l -104 32 C 206.276 71.753 205.076 71.753 203.876 71.753 z" style="stroke: none; stroke-width: 1; stroke-dasharray: none; stroke-linecap: butt; stroke-linejoin: miter; stroke-miterlimit: 10; fill: #07692e; fill-rule: nonzero; opacity: 1;" transform=" matrix(1 0 0 1 0 0) " stroke-linecap="round" />
  <path d="M 203.876 35.753 c -5.2 0 -10 -3.2 -11.6 -8.4 c -2 -6.4 1.6 -13.2 8 -14.8 l 40 -12 c 6.4 -2 13.2 1.6 14.8 8 c 1.6 6.4 -1.6 13.2 -8 14.8 l -40 12 C 206.276 35.753 205.076 35.753 203.876 35.753 z" style="stroke: none; stroke-width: 1; stroke-dasharray: none; stroke-linecap: butt; stroke-linejoin: miter; stroke-miterlimit: 10; fill: #07692e; fill-rule: nonzero; opacity: 1;" transform=" matrix(1 0 0 1 0 0) " stroke-linecap="round" />
  <path d="M 239.876 223.753 c -6.8 0 -12 -5.2 -12 -12 v -28 c 0 -2.4 -1.2 -4.8 -3.2 -6.4 s -4.8 -2 -7.2 -1.2 l -10 3.2 c -6.4 2 -13.2 -1.6 -14.8 -8 c -2 -6.4 1.6 -13.2 8 -14.8 l 10 -3.2 c 9.6 -2.8 20.4 -1.2 28.4 4.8 s 12.8 15.6 12.8 25.6 v 28 C 251.876 218.553 246.676 223.753 239.876 223.753 z" style="stroke: none; stroke-width: 1; stroke-dasharray: none; stroke-linecap: butt; stroke-linejoin: miter; stroke-miterlimit: 10; fill: #07692e; fill-rule: nonzero; opacity: 1;" transform=" matrix(1 0 0 1 0 0) " stroke-linecap="round" />
  <path d="M 271.876 223.753 c -6.8 0 -12 -5.2 -12 -12 v -8.4 c 0 -8.8 2.8 -16.8 8 -23.6 s 12 -12 20.4 -14.4 l 16.4 -4.8 c 6.4 -2 13.2 1.6 15.2 8 s -1.6 13.2 -8 15.2 l -16.4 5.2 c -3.2 1.2 -6 3.2 -8 5.6 c -2 2.8 -3.2 6 -3.2 9.6 v 8.4 C 283.876 218.553 278.676 223.753 271.876 223.753 z" style="stroke: none; stroke-width: 1; stroke-dasharray: none; stroke-linecap: butt; stroke-linejoin: miter; stroke-miterlimit: 10; fill: #07692e; fill-rule: nonzero; opacity: 1;" transform=" matrix(1 0 0 1 0 0) " stroke-linecap="round" />
  <polygon points="295.88,211.75 215.88,211.75 207.88,219.75 207.88,251.75 223.88,267.75 223.88,283.75 287.88,283.75 287.88,267.75 303.88,251.75 303.88,219.75 " style="stroke: none; stroke-width: 1; stroke-dasharray: none; stroke-linecap: butt; stroke-linejoin: miter; stroke-miterlimit: 10; fill: #fc5c3a; fill-rule: nonzero; opacity: 1;" transform="  matrix(1 0 0 1 0 0) "/>
  <rect x="207.88" y="231.75" rx="0" ry="0" width="96" height="8" style="stroke: none; stroke-width: 1; stroke-dasharray: none; stroke-linecap: butt; stroke-linejoin: miter; stroke-miterlimit: 10; fill: #38383B; fill-rule: nonzero; opacity: 1;" transform=" matrix(1 0 0 1 0 0) "/>
  <polygon points="279.88,323.75 231.88,323.75 223.88,315.75 223.88,275.75 287.88,275.75 287.88,315.75 " style="stroke: none; stroke-width: 1; stroke-dasharray: none; stroke-linecap: butt; stroke-linejoin: miter; stroke-miterlimit: 10; fill: #07692e; fill-rule: nonzero; opacity: 1;" transform="  matrix(1 0 0 1 0 0) "/>
  <rect x="223.88" y="291.75" rx="0" ry="0" width="64" height="8" style="stroke: none; stroke-width: 1; stroke-dasharray: none; stroke-linecap: butt; stroke-linejoin: miter; stroke-miterlimit: 10; fill: #38383B; fill-rule: nonzero; opacity: 1;" transform=" matrix(1 0 0 1 0 0) "/>
  <rect x="223.88" y="307.75" rx="0" ry="0" width="64" height="8" style="stroke: none; stroke-width: 1; stroke-dasharray: none; stroke-linecap: butt; stroke-linejoin: miter; stroke-miterlimit: 10; fill: #38383B; fill-rule: nonzero; opacity: 1;" transform=" matrix(1 0 0 1 0 0) "/>
  <rect x="231.88" y="323.75" rx="0" ry="0" width="48" height="8" style="stroke: none; stroke-width: 1; stroke-dasharray: none; stroke-linecap: butt; stroke-linejoin: miter; stroke-miterlimit: 10; fill: #38383B; fill-rule: nonzero; opacity: 1;" transform=" matrix(1 0 0 1 0 0) "/>
  <rect x="251.88" y="327.75" rx="0" ry="0" width="8" height="164" style="stroke: none; stroke-width: 1; stroke-dasharray: none; stroke-linecap: butt; stroke-linejoin: miter; stroke-miterlimit: 10; fill: #38383B; fill-rule: nonzero; opacity: 1;" transform=" matrix(1 0 0 1 0 0) "/>
  <path d="M 127.876 323.753 h 60 c 14.4 0 28.8 5.6 39.6 16.4 s 16.4 25.2 16.4 39.6 v 24 h -60 c -14.4 0 -28.8 -5.6 -39.6 -16.4 s -16.4 -25.2 -16.4 -39.6 V 323.753 z" style="stroke: none; stroke-width: 1; stroke-dasharray: none; stroke-linecap: butt; stroke-linejoin: miter; stroke-miterlimit: 10; fill: #0eb543; fill-rule: nonzero; opacity: 1;" transform=" matrix(1 0 0 1 0 0) " stroke-linecap="round" />
  <path d="M 383.876 363.753 h -60 c -14.4 0 -28.8 5.6 -39.6 16.4 s -16.4 25.2 -16.4 39.6 v 24 h 60 c 14.4 0 28.8 -5.6 39.6 -16.4 s 16.4 -25.2 16.4 -39.6 V 363.753 z" style="stroke: none; stroke-width: 1; stroke-dasharray: none; stroke-linecap: butt; stroke-linejoin: miter; stroke-miterlimit: 10; fill: #0eb543; fill-rule: nonzero; opacity: 1;" transform=" matrix(1 0 0 1 0 0) " stroke-linecap="round" />
  <circle cx="139.88" cy="123.75" r="16" style="stroke: none; stroke-width: 1; stroke-dasharray: none; stroke-linecap: butt; stroke-linejoin: miter; stroke-miterlimit: 10; fill: #fc5c3a; fill-rule: nonzero; opacity: 1;" transform="  matrix(1 0 0 1 0 0) "/>
  <circle cx="335.88" cy="63.75" r="24" style="stroke: none; stroke-width: 1; stroke-dasharray: none; stroke-linecap: butt; stroke-linejoin: miter; stroke-miterlimit: 10; fill: #0eb543; fill-rule: nonzero; opacity: 1;" transform="  matrix(1 0 0 1 0 0) "/>
  <circle cx="163.88" cy="59.75" r="12" style="stroke: none; stroke-width: 1; stroke-dasharray: none; stroke-linecap: butt; stroke-linejoin: miter; stroke-miterlimit: 10; fill: #07692e; fill-rule: nonzero; opacity: 1;" transform="  matrix(1 0 0 1 0 0) "/>
  <circle cx="323.88" cy="203.75" r="8" style="stroke: none; stroke-width: 1; stroke-dasharray: none; stroke-linecap: butt; stroke-linejoin: miter; stroke-miterlimit: 10; fill: #07692e; fill-rule: nonzero; opacity: 1;" transform="  matrix(1 0 0 1 0 0) "/>
  <circle cx="175.88" cy="167.75" r="4" style="stroke: none; stroke-width: 1; stroke-dasharray: none; stroke-linecap: butt; stroke-linejoin: miter; stroke-miterlimit: 10; fill: #0eb543; fill-rule: nonzero; opacity: 1;" transform="  matrix(1 0 0 1 0 0) "/>
  <circle cx="347.88" cy="163.75" r="8" style="stroke: none; stroke-width: 1; stroke-dasharray: none; stroke-linecap: butt; stroke-linejoin: miter; stroke-miterlimit: 10; fill: #fc5c3a; fill-rule: nonzero; opacity: 1;" transform="  matrix(1 0 0 1 0 0) "/>
  <rect x="363.88" y="107.75" rx="0" ry="0" width="8" height="8" style="stroke: none; stroke-width: 1; stroke-dasharray: none; stroke-linecap: butt; stroke-linejoin: miter; stroke-miterlimit: 10; fill: #38383B; fill-rule: nonzero; opacity: 1;" transform=" matrix(1 0 0 1 0 0) "/>
  <rect x="363.88" y="123.75" rx="0" ry="0" width="8" height="8" style="stroke: none; stroke-width: 1; stroke-dasharray: none; stroke-linecap: butt; stroke-linejoin: miter; stroke-miterlimit: 10; fill: #38383B; fill-rule: nonzero; opacity: 1;" transform=" matrix(1 0 0 1 0 0) "/>
  <rect x="355.88" y="115.75" rx="0" ry="0" width="8" height="8" style="stroke: none; stroke-width: 1; stroke-dasharray: none; stroke-linecap: butt; stroke-linejoin: miter; stroke-miterlimit: 10; fill: #38383B; fill-rule: nonzero; opacity: 1;" transform=" matrix(1 0 0 1 0 0) "/>
  <rect x="371.88" y="115.75" rx="0" ry="0" width="8" height="8" style="stroke: none; stroke-width: 1; stroke-dasharray: none; stroke-linecap: butt; stroke-linejoin: miter; stroke-miterlimit: 10; fill: #38383B; fill-rule: nonzero; opacity: 1;" transform=" matrix(1 0 0 1 0 0) "/>
  <rect x="155.88" y="199.75" rx="0" ry="0" width="8" height="8" style="stroke: none; stroke-width: 1; stroke-dasharray: none; stroke-linecap: butt; stroke-linejoin: miter; stroke-miterlimit: 10; fill: #38383B; fill-rule: nonzero; opacity: 1;" transform=" matrix(1 0 0 1 0 0) "/>
  <rect x="155.88" y="215.75" rx="0" ry="0" width="8" height="8" style="stroke: none; stroke-width: 1; stroke-dasharray: none; stroke-linecap: butt; stroke-linejoin: miter; stroke-miterlimit: 10; fill: #38383B; fill-rule: nonzero; opacity: 1;" transform=" matrix(1 0 0 1 0 0) "/>
  <rect x="147.88" y="207.75" rx="0" ry="0" width="8" height="8" style="stroke: none; stroke-width: 1; stroke-dasharray: none; stroke-linecap: butt; stroke-linejoin: miter; stroke-miterlimit: 10; fill: #38383B; fill-rule: nonzero; opacity: 1;" transform=" matrix(1 0 0 1 0 0) "/>
  <rect x="163.88" y="207.75" rx="0" ry="0" width="8" height="8" style="stroke: none; stroke-width: 1; stroke-dasharray: none; stroke-linecap: butt; stroke-linejoin: miter; stroke-miterlimit: 10; fill: #38383B; fill-rule: nonzero; opacity: 1;" transform=" matrix(1 0 0 1 0 0) "/>
  <rect x="319.88" y="263.75" rx="0" ry="0" width="8" height="8" style="stroke: none; stroke-width: 1; stroke-dasharray: none; stroke-linecap: butt; stroke-linejoin: miter; stroke-miterlimit: 10; fill: #38383B; fill-rule: nonzero; opacity: 1;" transform=" matrix(1 0 0 1 0 0) "/>
  <rect x="319.88" y="279.75" rx="0" ry="0" width="8" height="8" style="stroke: none; stroke-width: 1; stroke-dasharray: none; stroke-linecap: butt; stroke-linejoin: miter; stroke-miterlimit: 10; fill: #38383B; fill-rule: nonzero; opacity: 1;" transform=" matrix(1 0 0 1 0 0) "/>
  <rect x="311.88" y="271.75" rx="0" ry="0" width="8" height="8" style="stroke: none; stroke-width: 1; stroke-dasharray: none; stroke-linecap: butt; stroke-linejoin: miter; stroke-miterlimit: 10; fill: #38383B; fill-rule: nonzero; opacity: 1;" transform=" matrix(1 0 0 1 0 0) "/>
  <rect x="327.88" y="271.75" rx="0" ry="0" width="8" height="8" style="stroke: none; stroke-width: 1; stroke-dasharray: none; stroke-linecap: butt; stroke-linejoin: miter; stroke-miterlimit: 10; fill: #38383B; fill-rule: nonzero; opacity: 1;" transform=" matrix(1 0 0 1 0 0) "/>
  <path d="M 319.476 60.153 c -0.8 -2.8 -2.8 -5.2 -5.2 -6.8 c -1.6 3.2 -2.4 6.4 -2.4 10 c 0 3.6 0.8 7.2 2.4 10 C 318.676 70.953 321.076 65.753 319.476 60.153 z" style="stroke: none; stroke-width: 1; stroke-dasharray: none; stroke-linecap: butt; stroke-linejoin: miter; stroke-miterlimit: 10; fill: #4aa373; fill-rule: nonzero; opacity: 1;" transform=" matrix(1 0 0 1 0 0) " stroke-linecap="round" />
  <path d="M 271.876 223.753 c 6.8 0 12 -5.2 12 -12 h -24 C 259.876 218.553 265.076 223.753 271.876 223.753 z" style="stroke: none; stroke-width: 1; stroke-dasharray: none; stroke-linecap: butt; stroke-linejoin: miter; stroke-miterlimit: 10; fill: #DF5436; fill-rule: nonzero; opacity: 1;" transform=" matrix(1 0 0 1 0 0) " stroke-linecap="round" />
  <path d="M 239.876 223.753 c 6.8 0 12 -5.2 12 -12 h -24 C 227.876 218.553 233.076 223.753 239.876 223.753 z" style="stroke: none; stroke-width: 1; stroke-dasharray: none; stroke-linecap: butt; stroke-linejoin: miter; stroke-miterlimit: 10; fill: #DF5436; fill-rule: nonzero; opacity: 1;" transform=" matrix(1 0 0 1 0 0) " stroke-linecap="round" />
  <rect x="223.88" y="275.75" rx="0" ry="0" width="64" height="8" style="stroke: none; stroke-width: 1; stroke-dasharray: none; stroke-linecap: butt; stroke-linejoin: miter; stroke-miterlimit: 10; fill: #DF5436; fill-rule: nonzero; opacity: 1;" transform=" matrix(1 0 0 1 0 0) "/>
  <path d="M 297.076 370.553 c -4.8 2.4 -8.8 5.6 -12.8 9.6 c -10.8 10.8 -16.4 25.2 -16.4 39.6 v 24 h 60 c 14 0 28 -5.2 38.8 -16 C 351.476 401.353 326.676 380.553 297.076 370.553 z" style="stroke: none; stroke-width: 1; stroke-dasharray: none; stroke-linecap: butt; stroke-linejoin: miter; stroke-miterlimit: 10; fill: #4aa373; fill-rule: nonzero; opacity: 1;" transform=" matrix(1 0 0 1 0 0) " stroke-linecap="round" />
  <path d="M 183.876 403.753 h 60 v -24 c 0 -5.2 -0.8 -10.4 -2 -15.2 c -29.6 3.2 -56 16.4 -76 36 C 171.876 402.553 177.876 403.753 183.876 403.753 z" style="stroke: none; stroke-width: 1; stroke-dasharray: none; stroke-linecap: butt; stroke-linejoin: miter; stroke-miterlimit: 10; fill: #4aa373; fill-rule: nonzero; opacity: 1;" transform=" matrix(1 0 0 1 0 0) " stroke-linecap="round" />
</g>
  <g transform="translate(136.93 88.01) scale(0.81 0.81)">
   <text font-family="Frontage" font-size="40" font-weight="normal" style="stroke: none; stroke-width: 1; stroke-dasharray: none; stroke-linecap: butt; stroke-linejoin: miter; stroke-miterlimit: 10; fill: #428f49; fill-rule: nonzero; opacity: 1;" ><tspan x="-156.2" y="8.98" style="stroke: none; stroke-width: 0; stroke-dasharray: none; stroke-linecap: butt; stroke-linejoin: miter; stroke-miterlimit: 4; fill: #428f49; fill-rule: ; opacity: 1;">E</tspan><tspan x="-117" y="8.98" style="stroke: none; stroke-width: 0; stroke-dasharray: none; stroke-linecap: butt; stroke-linejoin: miter; stroke-miterlimit: 4; fill: #428f49; fill-rule: ; opacity: 1;">l</tspan><tspan x="-80.21" y="8.98" style="stroke: none; stroke-width: 0; stroke-dasharray: none; stroke-linecap: butt; stroke-linejoin: miter; stroke-miterlimit: 4; fill: #428f49; fill-rule: ; opacity: 1;">e</tspan><tspan x="-41.01" y="8.98" style="stroke: none; stroke-width: 0; stroke-dasharray: none; stroke-linecap: butt; stroke-linejoin: miter; stroke-miterlimit: 4; fill: #428f49; fill-rule: ; opacity: 1;">c</tspan><tspan x="-3.45" y="8.98" style="stroke: none; stroke-width: 0; stroke-dasharray: none; stroke-linecap: butt; stroke-linejoin: miter; stroke-miterlimit: 4; fill: #428f49; fill-rule: ; opacity: 1;">t</tspan><tspan x="34.54" y="8.98" style="stroke: none; stroke-width: 0; stroke-dasharray: none; stroke-linecap: butt; stroke-linejoin: miter; stroke-miterlimit: 4; fill: #428f49; fill-rule: ; opacity: 1;">r</tspan><tspan x="73.06" y="8.98" style="stroke: none; stroke-width: 0; stroke-dasharray: none; stroke-linecap: butt; stroke-linejoin: miter; stroke-miterlimit: 4; fill: #428f49; fill-rule: ; opacity: 1;">i</tspan><tspan x="96.65" y="8.98" style="stroke: none; stroke-width: 0; stroke-dasharray: none; stroke-linecap: butt; stroke-linejoin: miter; stroke-miterlimit: 4; fill: #428f49; fill-rule: ; opacity: 1;">c</tspan><tspan x="134.21" y="8.98" style="stroke: none; stroke-width: 0; stroke-dasharray: none; stroke-linecap: butt; stroke-linejoin: miter; stroke-miterlimit: 4; fill: #428f49; fill-rule: ; opacity: 1;"> </tspan></text>
 </g>
  <g transform="translate(424.12 90.25) scale(0.81 0.81)">
   <text font-family="Frontage" font-size="40" font-weight="normal" style="stroke: none; stroke-width: 1; stroke-dasharray: none; stroke-linecap: butt; stroke-linejoin: miter; stroke-miterlimit: 10; fill: #428f49; fill-rule: nonzero; opacity: 1;" ><tspan x="-129.52" y="8.98" style="stroke: none; stroke-width: 0; stroke-dasharray: none; stroke-linecap: butt; stroke-linejoin: miter; stroke-miterlimit: 4; fill: #428f49; fill-rule: ; opacity: 1;">G</tspan><tspan x="-89.97" y="8.98" style="stroke: none; stroke-width: 0; stroke-dasharray: none; stroke-linecap: butt; stroke-linejoin: miter; stroke-miterlimit: 4; fill: #428f49; fill-rule: ; opacity: 1;">a</tspan><tspan x="-46.57" y="8.98" style="stroke: none; stroke-width: 0; stroke-dasharray: none; stroke-linecap: butt; stroke-linejoin: miter; stroke-miterlimit: 4; fill: #428f49; fill-rule: ; opacity: 1;">l</tspan><tspan x="-9.78" y="8.98" style="stroke: none; stroke-width: 0; stroke-dasharray: none; stroke-linecap: butt; stroke-linejoin: miter; stroke-miterlimit: 4; fill: #428f49; fill-rule: ; opacity: 1;">o</tspan><tspan x="29.81" y="8.98" style="stroke: none; stroke-width: 0; stroke-dasharray: none; stroke-linecap: butt; stroke-linejoin: miter; stroke-miterlimit: 4; fill: #428f49; fill-rule: ; opacity: 1;">r</tspan><tspan x="68.33" y="8.98" style="stroke: none; stroke-width: 0; stroke-dasharray: none; stroke-linecap: butt; stroke-linejoin: miter; stroke-miterlimit: 4; fill: #428f49; fill-rule: ; opacity: 1;">e</tspan><tspan x="107.53" y="8.98" style="stroke: none; stroke-width: 0; stroke-dasharray: none; stroke-linecap: butt; stroke-linejoin: miter; stroke-miterlimit: 4; fill: #428f49; fill-rule: ; opacity: 1;"> </tspan></text>
 </g>
  <g transform="translate(266.79 177.7) scale(1.12 0.85)">
   <text font-family="ADAMCG PRO" font-size="40" font-weight="normal" style="stroke: none; stroke-width: 1; stroke-dasharray: none; stroke-linecap: butt; stroke-linejoin: miter; stroke-miterlimit: 10; fill: #428f49; fill-rule: nonzero; opacity: 1;" ><tspan x="-11.63" y="8.98" style="stroke: none; stroke-width: 0; stroke-dasharray: none; stroke-linecap: butt; stroke-linejoin: miter; stroke-miterlimit: 4; fill: #428f49; fill-rule: ; opacity: 1;">E</tspan></text>
 </g>
  <g transform="translate(286.49 197.77) scale(1.04 0.89) matrix(-1 0 0 1 0 0) ">
   <text font-family="ADAMCG PRO" font-size="40" font-weight="normal" style="stroke: none; stroke-width: 1; stroke-dasharray: none; stroke-linecap: butt; stroke-linejoin: miter; stroke-miterlimit: 10; fill: #428f49; fill-rule: nonzero; opacity: 1;" ><tspan x="-14.2" y="8.98" style="stroke: none; stroke-width: 0; stroke-dasharray: none; stroke-linecap: butt; stroke-linejoin: miter; stroke-miterlimit: 4; fill: #428f49; fill-rule: ; opacity: 1;">G</tspan></text>
 </g>
</svg>