<?xml version="1.0" encoding="UTF-8" standalone="no" ?>
<!DOCTYPE svg PUBLIC "-//W3C//DTD SVG 1.1//EN" "http://www.w3.org/Graphics/SVG/1.1/DTD/svg11.dtd">
<svg xmlns="http://www.w3.org/2000/svg" xmlns:xlink="http://www.w3.org/1999/xlink" version="1.1" width="563.6165000000001" height="554.8910000000001" xml:space="preserve">
<desc>Created with Fabric.js 1.6.0-rc.1</desc>
<defs></defs>
<g style="stroke: none; stroke-width: 1; stroke-dasharray: none; stroke-linecap: butt; stroke-linejoin: miter; stroke-miterlimit: 10; fill: none; fill-rule: nonzero; opacity: 1;" transform="translate(78.65999999999997 97) scale(0.71 0.65)" >
  <path d="M 127.876 491.753 c 0 -70.8 57.2 -128 128 -128 s 128 57.2 128 128" style="stroke: none; stroke-width: 1; stroke-dasharray: none; stroke-linecap: butt; stroke-linejoin: miter; stroke-miterlimit: 10; fill: #07692e; fill-rule: nonzero; opacity: 1;" transform=" matrix(1 0 0 1 0 0) " stroke-linecap="round" />
  <rect x="75.88" y="487.75" rx="0" ry="0" width="360" height="8" style="stroke: none; stroke-width: 1; stroke-dasharray: none; stroke-linecap: butt; stroke-linejoin: miter; stroke-miterlimit: 10; fill: #38383B; fill-rule: nonzero; opacity: 1;" transform=" matrix(1 0 0 1 0 0) "/>
  <path d="M 435.876 511.753 h -8 v -8 h 8 V 511.753 z M 419.876 511.753 h -8 v -8 h 8 V 511.753 z M 403.876 511.753 h -8 v -8 h 8 V 511.753 z M 387.876 511.753 h -8 v -8 h 8 V 511.753 z M 371.876 511.753 h -8 v -8 h 8 V 511.753 z M 355.876 511.753 h -8 v -8 h 8 V 511.753 z M 339.876 511.753 h -8 v -8 h 8 V 511.753 z M 323.876 511.753 h -8 v -8 h 8 V 511.753 z M 307.876 511.753 h -8 v -8 h 8 V 511.753 z M 291.876 511.753 h -8 v -8 h 8 V 511.753 z M 275.876 511.753 h -8 v -8 h 8 V 511.753 z M 259.876 511.753 h -8 v -8 h 8 V 511.753 z M 243.876 511.753 h -8 v -8 h 8 V 511.753 z M 227.876 511.753 h -8 v -8 h 8 V 511.753 z M 211.876 511.753 h -8 v -8 h 8 V 511.753 z M 195.876 511.753 h -8 v -8 h 8 V 511.753 z M 179.876 511.753 h -8 v -8 h 8 V 511.753 z M 163.876 511.753 h -8 v -8 h 8 V 511.753 z M 147.876 511.753 h -8 v -8 h 8 V 511.753 z M 131.876 511.753 h -8 v -8 h 8 V 511.753 z M 115.876 511.753 h -8 v -8 h 8 V 511.753 z M 99.876 511.753 h -8 v -8 h 8 V 511.753 z M 83.876 511.753 h -8 v -8 h 8 V 511.753 z" style="stroke: none; stroke-width: 1; stroke-dasharray: none; stroke-linecap: butt; stroke-linejoin: miter; stroke-miterlimit: 10; fill: #38383B; fill-rule: nonzero; opacity: 1;" transform=" matrix(1 0 0 1 0 0) " stroke-linecap="round" />
  <path d="M 203.876 179.753 c -5.2 0 -10 -3.2 -11.6 -8.4 c -2 -6.4 1.6 -13.2 8 -14.8 l 104 -32 c 6.4 -2 13.2 1.6 14.8 8 c 2 6.4 -1.6 13.2 -8 14.8 l -104 32 C 206.276 179.753 205.076 179.753 203.876 179.753 z" style="stroke: none; stroke-width: 1; stroke-dasharray: none; stroke-linecap: butt; stroke-linejoin: miter; stroke-miterlimit: 10; fill: #07692e; fill-rule: nonzero; opacity: 1;" transform=" matrix(1 0 0 1 0 0) " stroke-linecap="round" />
  <path d="M 203.876 143.753 c -5.2 0 -10 -3.2 -11.6 -8.4 c -2 -6.4 1.6 -13.2 8 -14.8 l 104 -32 c 6.4 -2 13.2 1.6 14.8 8 c 2 6.4 -1.6 13.2 -8 14.8 l -104 32 C 206.276 143.753 205.076 143.753 203.876 143.753 z" style="stroke: none; stroke-width: 1; stroke-dasharray: none; stroke-linecap: butt; stroke-linejoin: miter; stroke-miterlimit: 10; fill: #07692e; fill-rule: nonzero; opacity: 1;" transform=" matrix(1 0 0 1 0 0) " stroke-linecap="round" />
  <path d="M 203.876 107.753 c -5.2 0 -10 -3.2 -11.6 -8.4 c -2 -6.4 1.6 -13.2 8 -14.8 l 104 -32 c 6.4 -2 13.2 1.6 14.8 8 c 2 6.4 -1.6 13.2 -8 14.8 l -104 32 C 206.276 107.753 205.076 107.753 203.876 107.753 z" style="stroke: none; stroke-width: 1; stroke-dasharray: none; stroke-linecap: butt; stroke-linejoin: miter; stroke-miterlimit: 10; fill: #07692e; fill-rule: nonzero; opacity: 1;" transform=" matrix(1 0 0 1 0 0) " stroke-linecap="round" />
  <path d="M 203.876 71.753 c -5.2 0 -10 -3.2 -11.6 -8.4 c -2 -6.4 1.6 -13.2 8 -14.8 l 104 -32 c 6.4 -2 13.2 1.6 14.8 8 c 2 6.4 -1.6 13.2 -8 14.8 l -104 32 C 206.276 71.753 205.076 71.753 203.876 71.753 z" style="stroke: none; stroke-width: 1; stroke-dasharray: none; stroke-linecap: butt; stroke-linejoin: miter; stroke-miterlimit: 10; fill: #07692e; fill-rule: nonzero; opacity: 1;" transform=" matrix(1 0 0 1 0 0) " stroke-linecap="round" />
  <path d="M 203.876 35.753 c -5.2 0 -10 -3.2 -11.6 -8.4 c -2 -6.4 1.6 -13.2 8 -14.8 l 40 -12 c 6.4 -2 13.2 1.6 14.8 8 c 1.6 6.4 -1.6 13.2 -8 14.8 l -40 12 C 206.276 35.753 205.076 35.753 203.876 35.753 z" style="stroke: none; stroke-width: 1; stroke-dasharray: none; stroke-linecap: butt; stroke-linejoin: miter; stroke-miterlimit: 10; fill: #07692e; fill-rule: nonzero; opacity: 1;" transform=" matrix(1 0 0 1 0 0) " stroke-linecap="round" />
  <path d="M 239.876 223.753 c -6.8 0 -12 -5.2 -12 -12 v -28 c 0 -2.4 -1.2 -4.8 -3.2 -6.4 s -4.8 -2 -7.2 -1.2 l -10 3.2 c -6.4 2 -13.2 -1.6 -14.8 -8 c -2 -6.4 1.6 -13.2 8 -14.8 l 10 -3.2 c 9.6 -2.8 20.4 -1.2 28.4 4.8 s 12.8 15.6 12.8 25.6 v 28 C 251.876 218.553 246.676 223.753 239.876 223.753 z" style="stroke: none; stroke-width: 1; stroke-dasharray: none; stroke-linecap: butt; stroke-linejoin: miter; stroke-miterlimit: 10; fill: #07692e; fill-rule: nonzero; opacity: 1;" transform=" matrix(1 0 0 1 0 0) " stroke-linecap="round" />
  <path d="M 271.876 223.753 c -6.8 0 -12 -5.2 -12 -12 v -8.4 c 0 -8.8 2.8 -16.8 8 -23.6 s 12 -12 20.4 -14.4 l 16.4 -4.8 c 6.4 -2 13.2 1.6 15.2 8 s -1.6 13.2 -8 15.2 l -16.4 5.2 c -3.2 1.2 -6 3.2 -8 5.6 c -2 2.8 -3.2 6 -3.2 9.6 v 8.4 C 283.876 218.553 278.676 223.753 271.876 223.753 z" style="stroke: none; stroke-width: 1; stroke-dasharray: none; stroke-linecap: butt; stroke-linejoin: miter; stroke-miterlimit: 10; fill: #07692e; fill-rule: nonzero; opacity: 1;" transform=" matrix(1 0 0 1 0 0) " stroke-linecap="round" />
  <polygon points="295.88,211.75 215.88,211.75 207.88,219.75 207.88,251.75 223.88,267.75 223.88,283.75 287.88,283.75 287.88,267.75 303.88,251.75 303.88,219.75 " style="stroke: none; stroke-width: 1; stroke-dasharray: none; stroke-linecap: butt; stroke-linejoin: miter; stroke-miterlimit: 10; fill: #fc5c3a; fill-rule: nonzero; opacity: 1;" transform="  matrix(1 0 0 1 0 0) "/>
  <rect x="207.88" y="231.75" rx="0" ry="0" width="96" height="8" style="stroke: none; stroke-width: 1; stroke-dasharray: none; stroke-linecap: butt; stroke-linejoin: miter; stroke-miterlimit: 10; fill: #38383B; fill-rule: nonzero; opacity: 1;" transform=" matrix(1 0 0 1 0 0) "/>
  <polygon points="279.88,323.75 231.88,323.75 223.88,315.75 223.88,275.75 287.88,275.75 287.88,315.75 " style="stroke: none; stroke-width: 1; stroke-dasharray: none; stroke-linecap: butt; stroke-linejoin: miter; stroke-miterlimit: 10; fill: #07692e; fill-rule: nonzero; opacity: 1;" transform="  matrix(1 0 0 1 0 0) "/>
  <rect x="223.88" y="291.75" rx="0" ry="0" width="64" height="8" style="stroke: none; stroke-width: 1; stroke-dasharray: none; stroke-linecap: butt; stroke-linejoin: miter; stroke-miterlimit: 10; fill: #38383B; fill-rule: nonzero; opacity: 1;" transform=" matrix(1 0 0 1 0 0) "/>
  <rect x="223.88" y="307.75" rx="0" ry="0" width="64" height="8" style="stroke: none; stroke-width: 1; stroke-dasharray: none; stroke-linecap: butt; stroke-linejoin: miter; stroke-miterlimit: 10; fill: #38383B; fill-rule: nonzero; opacity: 1;" transform=" matrix(1 0 0 1 0 0) "/>
  <rect x="231.88" y="323.75" rx="0" ry="0" width="48" height="8" style="stroke: none; stroke-width: 1; stroke-dasharray: none; stroke-linecap: butt; stroke-linejoin: miter; stroke-miterlimit: 10; fill: #38383B; fill-rule: nonzero; opacity: 1;" transform=" matrix(1 0 0 1 0 0) "/>
  <rect x="251.88" y="327.75" rx="0" ry="0" width="8" height="164" style="stroke: none; stroke-width: 1; stroke-dasharray: none; stroke-linecap: butt; stroke-linejoin: miter; stroke-miterlimit: 10; fill: #38383B; fill-rule: nonzero; opacity: 1;" transform=" matrix(1 0 0 1 0 0) "/>
  <path d="M 127.876 323.753 h 60 c 14.4 0 28.8 5.6 39.6 16.4 s 16.4 25.2 16.4 39.6 v 24 h -60 c -14.4 0 -28.8 -5.6 -39.6 -16.4 s -16.4 -25.2 -16.4 -39.6 V 323.753 z" style="stroke: none; stroke-width: 1; stroke-dasharray: none; stroke-linecap: butt; stroke-linejoin: miter; stroke-miterlimit: 10; fill: #0eb543; fill-rule: nonzero; opacity: 1;" transform=" matrix(1 0 0 1 0 0) " stroke-linecap="round" />
  <path d="M 383.876 363.753 h -60 c -14.4 0 -28.8 5.6 -39.6 16.4 s -16.4 25.2 -16.4 39.6 v 24 h 60 c 14.4 0 28.8 -5.6 39.6 -16.4 s 16.4 -25.2 16.4 -39.6 V 363.753 z" style="stroke: none; stroke-width: 1; stroke-dasharray: none; stroke-linecap: butt; stroke-linejoin: miter; stroke-miterlimit: 10; fill: #0eb543; fill-rule: nonzero; opacity: 1;" transform=" matrix(1 0 0 1 0 0) " stroke-linecap="round" />
  <circle cx="139.88" cy="123.75" r="16" style="stroke: none; stroke-width: 1; stroke-dasharray: none; stroke-linecap: butt; stroke-linejoin: miter; stroke-miterlimit: 10; fill: #fc5c3a; fill-rule: nonzero; opacity: 1;" transform="  matrix(1 0 0 1 0 0) "/>
  <circle cx="335.88" cy="63.75" r="24" style="stroke: none; stroke-width: 1; stroke-dasharray: none; stroke-linecap: butt; stroke-linejoin: miter; stroke-miterlimit: 10; fill: #0eb543; fill-rule: nonzero; opacity: 1;" transform="  matrix(1 0 0 1 0 0) "/>
  <circle cx="163.88" cy="59.75" r="12" style="stroke: none; stroke-width: 1; stroke-dasharray: none; stroke-linecap: butt; stroke-linejoin: miter; stroke-miterlimit: 10; fill: #07692e; fill-rule: nonzero; opacity: 1;" transform="  matrix(1 0 0 1 0 0) "/>
  <circle cx="323.88" cy="203.75" r="8" style="stroke: none; stroke-width: 1; stroke-dasharray: none; stroke-linecap: butt; stroke-linejoin: miter; stroke-miterlimit: 10; fill: #07692e; fill-rule: nonzero; opacity: 1;" transform="  matrix(1 0 0 1 0 0) "/>
  <circle cx="175.88" cy="167.75" r="4" style="stroke: none; stroke-width: 1; stroke-dasharray: none; stroke-linecap: butt; stroke-linejoin: miter; stroke-miterlimit: 10; fill: #0eb543; fill-rule: nonzero; opacity: 1;" transform="  matrix(1 0 0 1 0 0) "/>
  <circle cx="347.88" cy="163.75" r="8" style="stroke: none; stroke-width: 1; stroke-dasharray: none; stroke-linecap: butt; stroke-linejoin: miter; stroke-miterlimit: 10; fill: #fc5c3a; fill-rule: nonzero; opacity: 1;" transform="  matrix(1 0 0 1 0 0) "/>
  <rect x="363.88" y="107.75" rx="0" ry="0" width="8" height="8" style="stroke: none; stroke-width: 1; stroke-dasharray: none; stroke-linecap: butt; stroke-linejoin: miter; stroke-miterlimit: 10; fill: #38383B; fill-rule: nonzero; opacity: 1;" transform=" matrix(1 0 0 1 0 0) "/>
  <rect x="363.88" y="123.75" rx="0" ry="0" width="8" height="8" style="stroke: none; stroke-width: 1; stroke-dasharray: none; stroke-linecap: butt; stroke-linejoin: miter; stroke-miterlimit: 10; fill: #38383B; fill-rule: nonzero; opacity: 1;" transform=" matrix(1 0 0 1 0 0) "/>
  <rect x="355.88" y="115.75" rx="0" ry="0" width="8" height="8" style="stroke: none; stroke-width: 1; stroke-dasharray: none; stroke-linecap: butt; stroke-linejoin: miter; stroke-miterlimit: 10; fill: #38383B; fill-rule: nonzero; opacity: 1;" transform=" matrix(1 0 0 1 0 0) "/>
  <rect x="371.88" y="115.75" rx="0" ry="0" width="8" height="8" style="stroke: none; stroke-width: 1; stroke-dasharray: none; stroke-linecap: butt; stroke-linejoin: miter; stroke-miterlimit: 10; fill: #38383B; fill-rule: nonzero; opacity: 1;" transform=" matrix(1 0 0 1 0 0) "/>
  <rect x="155.88" y="199.75" rx="0" ry="0" width="8" height="8" style="stroke: none; stroke-width: 1; stroke-dasharray: none; stroke-linecap: butt; stroke-linejoin: miter; stroke-miterlimit: 10; fill: #38383B; fill-rule: nonzero; opacity: 1;" transform=" matrix(1 0 0 1 0 0) "/>
  <rect x="155.88" y="215.75" rx="0" ry="0" width="8" height="8" style="stroke: none; stroke-width: 1; stroke-dasharray: none; stroke-linecap: butt; stroke-linejoin: miter; stroke-miterlimit: 10; fill: #38383B; fill-rule: nonzero; opacity: 1;" transform=" matrix(1 0 0 1 0 0) "/>
  <rect x="147.88" y="207.75" rx="0" ry="0" width="8" height="8" style="stroke: none; stroke-width: 1; stroke-dasharray: none; stroke-linecap: butt; stroke-linejoin: miter; stroke-miterlimit: 10; fill: #38383B; fill-rule: nonzero; opacity: 1;" transform=" matrix(1 0 0 1 0 0) "/>
  <rect x="163.88" y="207.75" rx="0" ry="0" width="8" height="8" style="stroke: none; stroke-width: 1; stroke-dasharray: none; stroke-linecap: butt; stroke-linejoin: miter; stroke-miterlimit: 10; fill: #38383B; fill-rule: nonzero; opacity: 1;" transform=" matrix(1 0 0 1 0 0) "/>
  <rect x="319.88" y="263.75" rx="0" ry="0" width="8" height="8" style="stroke: none; stroke-width: 1; stroke-dasharray: none; stroke-linecap: butt; stroke-linejoin: miter; stroke-miterlimit: 10; fill: #38383B; fill-rule: nonzero; opacity: 1;" transform=" matrix(1 0 0 1 0 0) "/>
  <rect x="319.88" y="279.75" rx="0" ry="0" width="8" height="8" style="stroke: none; stroke-width: 1; stroke-dasharray: none; stroke-linecap: butt; stroke-linejoin: miter; stroke-miterlimit: 10; fill: #38383B; fill-rule: nonzero; opacity: 1;" transform=" matrix(1 0 0 1 0 0) "/>
  <rect x="311.88" y="271.75" rx="0" ry="0" width="8" height="8" style="stroke: none; stroke-width: 1; stroke-dasharray: none; stroke-linecap: butt; stroke-linejoin: miter; stroke-miterlimit: 10; fill: #38383B; fill-rule: nonzero; opacity: 1;" transform=" matrix(1 0 0 1 0 0) "/>
  <rect x="327.88" y="271.75" rx="0" ry="0" width="8" height="8" style="stroke: none; stroke-width: 1; stroke-dasharray: none; stroke-linecap: butt; stroke-linejoin: miter; stroke-miterlimit: 10; fill: #38383B; fill-rule: nonzero; opacity: 1;" transform=" matrix(1 0 0 1 0 0) "/>
  <path d="M 319.476 60.153 c -0.8 -2.8 -2.8 -5.2 -5.2 -6.8 c -1.6 3.2 -2.4 6.4 -2.4 10 c 0 3.6 0.8 7.2 2.4 10 C 318.676 70.953 321.076 65.753 319.476 60.153 z" style="stroke: none; stroke-width: 1; stroke-dasharray: none; stroke-linecap: butt; stroke-linejoin: miter; stroke-miterlimit: 10; fill: #4aa373; fill-rule: nonzero; opacity: 1;" transform=" matrix(1 0 0 1 0 0) " stroke-linecap="round" />
  <path d="M 271.876 223.753 c 6.8 0 12 -5.2 12 -12 h -24 C 259.876 218.553 265.076 223.753 271.876 223.753 z" style="stroke: none; stroke-width: 1; stroke-dasharray: none; stroke-linecap: butt; stroke-linejoin: miter; stroke-miterlimit: 10; fill: #DF5436; fill-rule: nonzero; opacity: 1;" transform=" matrix(1 0 0 1 0 0) " stroke-linecap="round" />
  <path d="M 239.876 223.753 c 6.8 0 12 -5.2 12 -12 h -24 C 227.876 218.553 233.076 223.753 239.876 223.753 z" style="stroke: none; stroke-width: 1; stroke-dasharray: none; stroke-linecap: butt; stroke-linejoin: miter; stroke-miterlimit: 10; fill: #DF5436; fill-rule: nonzero; opacity: 1;" transform=" matrix(1 0 0 1 0 0) " stroke-linecap="round" />
  <rect x="223.88" y="275.75" rx="0" ry="0" width="64" height="8" style="stroke: none; stroke-width: 1; stroke-dasharray: none; stroke-linecap: butt; stroke-linejoin: miter; stroke-miterlimit: 10; fill: #DF5436; fill-rule: nonzero; opacity: 1;" transform=" matrix(1 0 0 1 0 0) "/>
  <path d="M 297.076 370.553 c -4.8 2.4 -8.8 5.6 -12.8 9.6 c -10.8 10.8 -16.4 25.2 -16.4 39.6 v 24 h 60 c 14 0 28 -5.2 38.8 -16 C 351.476 401.353 326.676 380.553 297.076 370.553 z" style="stroke: none; stroke-width: 1; stroke-dasharray: none; stroke-linecap: butt; stroke-linejoin: miter; stroke-miterlimit: 10; fill: #4aa373; fill-rule: nonzero; opacity: 1;" transform=" matrix(1 0 0 1 0 0) " stroke-linecap="round" />
  <path d="M 183.876 403.753 h 60 v -24 c 0 -5.2 -0.8 -10.4 -2 -15.2 c -29.6 3.2 -56 16.4 -76 36 C 171.876 402.553 177.876 403.753 183.876 403.753 z" style="stroke: none; stroke-width: 1; stroke-dasharray: none; stroke-linecap: butt; stroke-linejoin: miter; stroke-miterlimit: 10; fill: #4aa373; fill-rule: nonzero; opacity: 1;" transform=" matrix(1 0 0 1 0 0) " stroke-linecap="round" />
</g>
  <g transform="translate(249.73 463.09) scale(1.72 1.45)">
   <text font-family="ADAMCG PRO" font-size="40" font-weight="normal" style="stroke: none; stroke-width: 1; stroke-dasharray: none; stroke-linecap: butt; stroke-linejoin: miter; stroke-miterlimit: 10; fill: #428f49; fill-rule: nonzero; opacity: 1;" ><tspan x="-11.63" y="8.98" style="stroke: none; stroke-width: 0; stroke-dasharray: none; stroke-linecap: butt; stroke-linejoin: miter; stroke-miterlimit: 4; fill: #428f49; fill-rule: ; opacity: 1;">E</tspan></text>
 </g>
  <g transform="translate(278.76 495.05) scale(1.47 1.29) matrix(-1 0 0 1 0 0) ">
   <text font-family="ADAMCG PRO" font-size="40" font-weight="normal" style="stroke: none; stroke-width: 1; stroke-dasharray: none; stroke-linecap: butt; stroke-linejoin: miter; stroke-miterlimit: 10; fill: #428f49; fill-rule: nonzero; opacity: 1;" ><tspan x="-14.2" y="8.98" style="stroke: none; stroke-width: 0; stroke-dasharray: none; stroke-linecap: butt; stroke-linejoin: miter; stroke-miterlimit: 4; fill: #428f49; fill-rule: ; opacity: 1;">G</tspan></text>
 </g>
<g style="stroke: none; stroke-width: 1; stroke-dasharray: none; stroke-linecap: butt; stroke-linejoin: miter; stroke-miterlimit: 10; fill: none; fill-rule: nonzero; opacity: 1;" transform="translate(10 10) scale(1.05 1.05)" >
  <path d="M 516.727 266.696 c -0.665 -34.825 -8.221 -69.54 -22.175 -101.283 c -13.908 -31.771 -34.094 -60.551 -58.876 -84.333 c -24.767 -23.8 -54.139 -42.615 -85.929 -55.027 c -31.773 -12.46 -65.937 -18.412 -99.687 -17.69 c -33.755 0.668 -67.36 8.007 -98.091 21.539 c -30.754 13.488 -58.615 33.058 -81.632 57.071 c -23.033 24.001 -41.229 52.452 -53.222 83.229 C 5.077 200.962 -0.66 234.013 0.06 266.696 c 0.67 32.688 7.793 65.182 20.903 94.899 c 13.067 29.738 32.019 56.681 55.266 78.931 c 23.234 22.268 50.766 39.846 80.528 51.417 c 29.749 11.616 61.69 17.136 93.303 16.419 c 31.62 -0.671 63.001 -7.58 91.707 -20.268 c 28.724 -12.646 54.747 -30.979 76.231 -53.461 c 21.503 -22.469 38.461 -49.08 49.611 -77.827 c 6.79 -17.427 11.396 -35.624 13.824 -54.062 c 0.649 0.037 1.302 0.063 1.96 0.063 c 18.409 0 33.333 -14.923 33.333 -33.333 c 0 -0.936 -0.049 -1.861 -0.124 -2.777 L 516.727 266.696 L 516.727 266.696 z M 463.762 355.21 c -12.226 27.71 -29.94 52.812 -51.655 73.532 c -21.703 20.732 -47.396 37.076 -75.127 47.807 c -27.724 10.77 -57.443 15.859 -86.919 15.146 c -29.481 -0.677 -58.644 -7.154 -85.323 -18.997 c -26.692 -11.806 -50.877 -28.901 -70.83 -49.849 c -19.968 -20.938 -35.691 -45.711 -46.001 -72.427 c -10.349 -26.712 -15.223 -55.321 -14.512 -83.728 c 0.678 -28.413 6.941 -56.465 18.361 -82.131 c 11.384 -25.677 27.863 -48.943 48.045 -68.13 c 20.172 -19.202 44.026 -34.307 69.726 -44.195 c 25.697 -9.928 53.195 -14.587 80.534 -13.877 c 27.343 0.68 54.286 6.728 78.939 17.726 c 24.662 10.963 47.008 26.824 65.429 46.241 c 18.436 19.405 32.922 42.341 42.391 67.025 c 9.504 24.684 13.948 51.072 13.241 77.342 h 0.125 c -0.076 0.916 -0.125 1.841 -0.125 2.777 c 0 17.193 13.018 31.34 29.732 33.137 C 476.551 320.747 471.184 338.453 463.762 355.21 z" style="stroke: none; stroke-width: 1; stroke-dasharray: none; stroke-linecap: butt; stroke-linejoin: miter; stroke-miterlimit: 10; fill: rgb(0,0,0); fill-rule: nonzero; opacity: 1;" transform="" stroke-linecap="round" />
</g>
</svg>